<svg
  xmlns="http://www.w3.org/2000/svg"
  width="204"
  height="204"
  viewBox="0 0 204 204"
  fill="none"
>
  <path
    d="M187.639 69.9021C193.092 67.8586 199.226 70.6143 200.696 76.2484C206.238 97.4863 204.802 120.051 196.436 140.546C186.737 164.31 168.435 183.543 145.182 194.409C121.928 205.275 95.4333 206.975 70.9821 199.169C46.5309 191.364 25.9211 174.628 13.2642 152.299C0.607328 129.97 -3.16618 103.69 2.6965 78.7016C8.55918 53.7134 23.627 31.854 44.8941 17.4842C66.1612 3.11439 92.0641 -2.7094 117.435 1.17464C139.317 4.52444 159.415 14.8827 174.791 30.5466C178.869 34.702 178.083 41.3805 173.529 45.009C168.975 48.6374 162.385 47.8272 158.195 43.7832C146.212 32.2155 130.877 24.5642 114.244 22.0179C94.1181 18.9368 73.5701 23.5566 56.6994 34.9558C39.8288 46.355 27.8758 63.6955 23.2251 83.518C18.5744 103.34 21.5679 124.188 31.6082 141.901C41.6486 159.614 57.9979 172.89 77.3943 179.082C96.7908 185.274 117.809 183.925 136.255 175.305C154.701 166.686 169.219 151.429 176.914 132.578C183.273 116.999 184.584 99.9117 180.815 83.688C179.497 78.0164 182.187 71.9457 187.639 69.9021Z"
    fill="url(#paint0_linear_16_344)"
  />
  <path 
    d="M 75.656 89.8 Z Z Z Z Z M 124.381 96.028 C 124.381 92.608 121.609 89.944 118.045 89.944 C 114.481 89.944 111.709 92.608 111.709 96.028 C 111.709 99.448 114.481 102.112 118.045 102.112 C 121.609 102.112 124.381 99.448 124.381 96.028 Z M 120.133 96.028 C 120.133 97.288 119.233 98.152 118.045 98.152 C 116.857 98.152 115.957 97.288 115.957 96.028 C 115.957 94.768 116.857 93.904 118.045 93.904 C 119.233 93.904 120.133 94.768 120.133 96.028 Z M 137.881 90.268 H 132.373 L 114.013 115 H 119.521 L 137.881 90.268 Z M 127.513 109.24 C 127.513 112.66 130.285 115.324 133.849 115.324 C 137.413 115.324 140.185 112.66 140.185 109.24 C 140.185 105.82 137.413 103.156 133.849 103.156 C 130.285 103.156 127.513 105.82 127.513 109.24 Z M 131.761 109.24 C 131.761 107.98 132.661 107.116 133.849 107.116 C 135.037 107.116 135.937 107.98 135.937 109.24 C 135.937 110.5 135.037 111.364 133.849 111.364 C 132.661 111.364 131.761 110.5 131.761 109.24 Z"
    fill = "white"
   
  />
  <text x="39%" y="52%" dominant-baseline="middle" text-anchor="middle" style="z-index: 9999;font-size: 2.5em;font-weight: 900;margin-right: 80px;" fill="white">100</text>

  <defs>
    <linearGradient
      id="paint0_linear_16_344"
      x1="-12.4348"
      y1="91.2145"
      x2="228.124"
      y2="92.098"
      gradientUnits="userSpaceOnUse"
    >
      <stop stop-color="#AA367C" />
      <stop offset="1" stop-color="#4A2FBD" />
    </linearGradient>
  </defs>
</svg>
